<svg version="1.1" id="Layer_1" xmlns="http://www.w3.org/2000/svg" xmlns:xlink="http://www.w3.org/1999/xlink" x="0px" y="0px"
	 width="100%" viewBox="0 0 1024 1024" enable-background="new 0 0 1024 1024" xml:space="preserve">
<path fill="#000000" opacity="1.000000" stroke="none" 
	d="
M935.000000,1025.000000 
	C623.333313,1025.000000 312.166656,1025.000000 1.000000,1025.000000 
	C1.000000,683.666687 1.000000,342.333344 1.000000,1.000000 
	C342.333344,1.000000 683.666687,1.000000 1025.000000,1.000000 
	C1025.000000,342.333344 1025.000000,683.666687 1025.000000,1025.000000 
	C995.166687,1025.000000 965.333313,1025.000000 935.000000,1025.000000 
M275.122528,489.562256 
	C273.340698,493.264496 271.456390,496.612213 266.304077,495.743378 
	C262.503906,495.102631 259.567139,496.656921 257.604797,500.146881 
	C255.526123,503.843750 256.131439,507.105042 258.668121,510.240631 
	C262.522675,515.005249 263.458527,520.437622 263.276520,526.496643 
	C262.931610,537.977722 263.104523,549.477295 263.207703,560.967834 
	C263.269379,567.831177 266.869873,571.467712 273.623718,571.643127 
	C278.283447,571.764099 282.951630,571.733948 287.612030,571.614258 
	C294.707397,571.432190 297.961182,568.113403 297.980927,561.077759 
	C298.017883,547.920898 297.895203,534.762634 298.082245,521.608337 
	C298.115326,519.281494 298.862885,516.686279 300.074188,514.698792 
	C309.573761,499.112000 318.966583,483.443909 329.055847,468.241272 
	C332.808685,462.586395 328.334076,453.569336 321.251434,454.218414 
	C315.800903,454.717896 310.268433,454.361450 304.772919,454.318390 
	C300.802856,454.287262 298.012634,455.788116 295.754974,459.295349 
	C289.726898,468.659698 283.335693,477.791046 277.025421,486.971405 
	C276.588196,487.607513 275.629059,487.884827 275.120636,487.312561 
	C277.872772,483.635742 277.549683,480.098602 275.094513,476.306763 
	C271.403870,470.606781 268.281952,464.520172 264.345032,459.007324 
	C262.826233,456.880554 259.846558,454.817352 257.346191,454.564178 
	C251.087357,453.930420 244.709564,454.098206 238.402786,454.412231 
	C231.655991,454.748169 228.063843,461.491760 231.328232,467.418365 
	C234.845108,473.803375 238.478241,480.131165 242.299271,486.336945 
	C243.257462,487.893188 245.056396,489.863861 246.593704,489.979065 
	C256.096558,490.691071 265.727509,492.582336 275.122528,489.562256 
M567.482666,496.253540 
	C555.655701,496.262909 543.828247,496.206116 532.002075,496.307617 
	C525.404541,496.364227 521.371155,499.622589 521.312927,505.596954 
	C521.127991,524.584473 521.153259,543.576416 521.362976,562.563721 
	C521.420166,567.740417 525.120422,571.313721 530.270996,571.574524 
	C535.918213,571.860535 541.606873,571.847717 547.251465,571.518799 
	C552.768921,571.197266 555.876587,567.565369 555.994812,561.958923 
	C556.075500,558.129272 556.015076,554.296692 556.015686,550.465393 
	C556.016663,544.140503 556.015930,537.815613 556.015930,531.490723 
	C562.728088,543.061218 568.710815,554.651184 574.375305,566.394714 
	C576.241211,570.263123 578.976501,571.770935 583.012939,571.721252 
	C588.176147,571.657654 593.340759,571.709473 598.504089,571.654114 
	C608.214844,571.549927 611.755005,565.686768 607.435974,556.919250 
	C603.088440,548.093811 598.745911,539.265808 594.325989,530.286255 
	C606.491150,525.303955 611.185791,516.514099 610.469238,504.028717 
	C609.935669,494.731964 610.380127,485.378540 610.405579,476.050385 
	C610.432007,466.401154 599.288330,454.453400 589.610840,454.353760 
	C570.289978,454.154755 550.965454,454.226898 531.643066,454.321655 
	C524.896301,454.354736 521.391418,458.096039 521.252136,464.998505 
	C521.168152,469.161041 521.212158,473.327515 521.267517,477.491272 
	C521.371582,485.317657 524.780212,488.712494 532.618774,488.736053 
	C544.612244,488.772095 556.606079,488.796539 568.599060,488.715179 
	C571.476562,488.695679 573.983459,488.643311 573.981018,492.570374 
	C573.978455,496.655304 571.232056,496.398010 567.482666,496.253540 
M390.714203,458.786621 
	C386.575806,457.298431 382.512787,454.856323 378.283203,454.522095 
	C369.677094,453.841980 360.974060,454.075439 352.323853,454.345459 
	C341.699951,454.677124 335.067108,461.319092 334.360016,471.890778 
	C334.204956,474.209015 334.257263,476.560516 334.442688,478.878448 
	C334.976562,485.553650 338.311462,488.660400 345.073303,488.727844 
	C352.898987,488.805878 360.737274,488.511414 368.546967,488.875366 
	C371.813721,489.027649 375.020874,490.458466 378.255127,491.308014 
	C378.221893,492.147888 378.188690,492.987793 378.155457,493.827698 
	C374.952393,494.636230 371.773834,496.000336 368.541382,496.142853 
	C360.729980,496.487213 352.891937,496.167816 345.067444,496.292603 
	C337.860840,496.407501 334.362946,499.979156 334.348236,507.103668 
	C334.316895,522.256531 334.271942,537.410339 334.397247,552.562317 
	C334.496307,564.543823 341.406342,571.446289 353.340332,571.613525 
	C361.498169,571.727844 369.678223,571.960693 377.809875,571.483887 
	C381.641083,571.259277 385.966644,570.353577 389.054382,568.260681 
	C398.534271,561.835144 407.661530,554.861267 416.667786,547.772644 
	C426.682953,539.889893 426.497681,527.693420 416.521118,519.802368 
	C413.858582,517.696411 411.088745,515.726013 408.036133,513.445374 
	C410.884491,511.260529 413.250458,509.460449 415.600952,507.640289 
	C426.867157,498.916412 426.824158,486.157135 415.540405,477.619080 
	C407.449524,471.496918 399.400085,465.320038 390.714203,458.786621 
M493.497742,496.268921 
	C475.514130,496.259125 457.530457,496.212708 439.546967,496.257294 
	C432.181030,496.275543 428.361664,499.722046 428.319702,506.564056 
	C428.224823,522.048523 428.155243,537.535950 428.355408,553.018555 
	C428.505310,564.614563 435.592590,571.465942 447.238434,571.674377 
	C453.730408,571.790588 460.226166,571.703369 466.720215,571.695374 
	C480.207825,571.678833 493.696228,571.734924 507.182739,571.600830 
	C514.688477,571.526245 517.946960,568.185974 517.999512,560.983521 
	C518.028687,556.987427 518.012207,552.990906 518.004822,548.994568 
	C517.989258,540.577515 515.071777,537.604614 506.648956,537.445801 
	C504.318420,537.401855 501.986694,537.411621 499.655518,537.411072 
	C487.559326,537.408020 475.463165,537.409607 463.314758,537.409607 
	C463.314758,534.808472 463.314758,532.912720 463.314758,530.879883 
	C464.408722,530.825623 465.221008,530.750854 466.033386,530.750244 
	C479.687469,530.739502 493.341949,530.797180 506.995514,530.711304 
	C514.700745,530.662842 517.969360,527.305054 518.003723,519.747437 
	C518.023376,515.418152 518.036743,511.088470 518.000793,506.759399 
	C517.945984,500.148895 514.653687,496.626648 507.982330,496.334656 
	C503.494659,496.138214 498.992157,496.280731 493.497742,496.268921 
M765.500122,496.270691 
	C749.838013,496.265747 734.175598,496.208130 718.513855,496.278229 
	C710.786987,496.312805 707.333801,499.884460 707.265442,507.638092 
	C707.218384,512.969360 707.196167,518.302368 707.270447,523.633057 
	C707.425842,534.783508 707.253052,545.959412 707.989868,557.073486 
	C708.481201,564.483704 714.174500,569.827393 721.496155,570.999634 
	C724.922913,571.548218 728.453613,571.595215 731.938293,571.609253 
	C749.766113,571.681335 767.594482,571.708618 785.422363,571.667786 
	C793.724365,571.648743 796.936890,568.364685 796.973572,560.179626 
	C796.987732,557.013916 796.994446,553.848145 796.999390,550.682434 
	C797.016296,539.920593 794.519714,537.352356 783.830566,537.324585 
	C770.043823,537.288696 756.257019,537.315796 742.264282,537.315796 
	C742.264282,534.930176 742.264282,533.030212 742.264282,530.772888 
	C744.130798,530.772888 745.760132,530.773193 747.389526,530.772827 
	C759.885864,530.769836 772.382202,530.788513 784.878479,530.756226 
	C793.890381,530.732910 796.990234,527.647278 796.992493,518.825439 
	C796.993408,515.159851 797.003296,511.494232 796.997253,507.828644 
	C796.983704,499.606262 793.887573,496.458038 785.494263,496.328461 
	C779.164062,496.230713 772.831604,496.284515 765.500122,496.270691 
M650.078125,537.412537 
	C641.591431,537.375061 633.103455,537.229248 624.618530,537.335571 
	C618.195007,537.416016 614.741455,540.687012 614.370056,547.047913 
	C614.118347,551.359131 614.284180,555.698303 614.350525,560.023682 
	C614.481873,568.591125 617.631592,571.618896 626.251892,571.618225 
	C641.894592,571.617004 657.537354,571.658203 673.179993,571.626099 
	C678.331177,571.615479 683.544861,571.908813 688.620911,571.237976 
	C702.368286,569.421082 708.461975,555.094299 700.405396,543.878845 
	C689.746765,529.041382 679.066956,514.216797 668.149780,499.570435 
	C666.777832,497.729797 663.973755,496.087067 661.723877,495.931091 
	C654.600464,495.437347 647.424683,495.724426 640.269897,495.644806 
	C636.438660,495.602203 634.212402,497.512299 632.682922,500.923706 
	C630.992249,504.694641 632.298340,507.619476 634.471924,510.583160 
	C640.261047,518.476501 645.996643,526.409180 651.728210,534.344421 
	C652.631592,535.595154 654.524353,537.217407 650.078125,537.412537 
M848.499878,571.661499 
	C855.661621,571.663940 862.827637,571.824341 869.984192,571.632324 
	C881.126160,571.333374 887.535156,565.123352 888.361023,554.081726 
	C888.522217,551.926758 888.498108,549.754089 888.479187,547.590271 
	C888.410095,539.673035 885.142273,536.309082 877.280579,536.259949 
	C866.788269,536.194336 856.295288,536.247253 845.802551,536.248901 
	C842.370850,536.249451 838.939148,536.249023 835.341736,536.249023 
	C835.341736,525.453674 835.417114,515.301453 835.314392,505.150940 
	C835.249329,498.724762 831.837524,495.365417 825.433411,495.227234 
	C820.938660,495.130280 816.440063,495.195099 811.943237,495.212921 
	C803.565918,495.246124 800.397644,498.265747 800.352234,506.605927 
	C800.272522,521.261108 800.819336,535.939758 800.144714,550.564392 
	C799.722290,559.721558 803.554749,564.977844 811.525452,568.080444 
	C813.525574,568.858948 815.576660,569.871033 817.657227,570.015930 
	C827.594788,570.707825 837.550598,571.138184 848.499878,571.661499 
M175.505859,571.656555 
	C185.989166,571.656555 196.473892,571.763306 206.955338,571.623779 
	C215.821854,571.505737 222.969955,566.607971 224.681213,559.080933 
	C225.552170,555.250061 225.393631,551.145630 225.394440,547.164795 
	C225.396011,539.601013 222.039383,536.325684 214.347458,536.286926 
	C202.034058,536.224976 189.720139,536.260620 177.406448,536.255249 
	C175.830811,536.254578 174.255157,536.255127 172.494781,536.255127 
	C172.494781,526.160645 172.498718,516.846191 172.493683,507.531708 
	C172.488663,498.223083 169.486359,495.168121 160.352203,495.172028 
	C156.358582,495.173737 152.364609,495.158295 148.371414,495.204712 
	C140.915649,495.291351 137.300705,498.766449 137.272781,506.159668 
	C137.212463,522.133911 137.337051,538.109009 137.243942,554.082947 
	C137.215042,559.043335 139.159241,562.442322 143.321121,565.230286 
	C152.915619,571.657410 163.674652,571.669128 175.505859,571.656555 
M518.007629,471.498840 
	C518.007385,469.502563 518.013916,467.506287 518.005676,465.510040 
	C517.974854,458.004974 514.621765,454.340546 507.224945,454.302338 
	C487.096710,454.198273 466.967224,454.176880 446.839020,454.278198 
	C438.400543,454.320648 431.272980,458.893646 429.532990,465.935425 
	C428.439941,470.359314 428.316437,475.159729 428.572784,479.745667 
	C428.899597,485.592010 432.485535,488.567383 438.396027,488.732513 
	C442.551636,488.848633 446.713074,488.757599 450.871918,488.755341 
	C469.503510,488.745270 488.135254,488.777466 506.766571,488.702484 
	C514.747803,488.670349 517.975891,485.334778 518.005798,477.461182 
	C518.012146,475.797668 518.007263,474.134125 518.007629,471.498840 
M723.159912,454.477081 
	C715.761658,455.552673 710.227112,459.335632 708.327881,466.648163 
	C707.224854,470.894806 707.301270,475.578339 707.579224,480.019470 
	C707.911438,485.328857 711.408020,488.605743 716.785095,488.633118 
	C740.431824,488.753601 764.080627,488.751373 787.726624,488.555481 
	C793.399963,488.508484 796.781250,484.547791 796.915222,478.821747 
	C797.020325,474.327637 796.977173,469.829437 796.962280,465.333191 
	C796.937561,457.884369 793.539856,454.334686 785.980469,454.309753 
	C765.331177,454.241699 744.681396,454.307129 723.159912,454.477081 
M699.460938,455.789795 
	C696.897217,455.284698 694.336304,454.359222 691.769226,454.341553 
	C672.606750,454.209412 653.443054,454.235016 634.279846,454.278809 
	C632.136169,454.283722 629.952942,454.523468 627.857361,454.975800 
	C619.422668,456.796509 613.551331,464.767944 614.553528,472.858948 
	C615.807190,482.979858 621.795044,488.698975 631.136292,488.702484 
	C649.133118,488.709259 667.129944,488.723755 685.126770,488.721039 
	C688.292114,488.720581 691.473389,488.840179 694.619446,488.574707 
	C700.691895,488.062256 703.905151,484.508240 703.977417,478.464722 
	C704.029236,474.132812 704.466675,469.725586 703.819641,465.491425 
	C703.330261,462.289032 701.399353,459.306885 699.460938,455.789795 
M203.493652,488.739716 
	C207.326523,488.743500 211.160706,488.812988 214.991974,488.736694 
	C221.836929,488.600464 225.154572,485.491486 225.425140,478.752991 
	C225.618881,473.927643 225.607559,469.087830 225.504776,464.258392 
	C225.372864,458.060547 221.776413,454.347137 215.469452,454.307617 
	C198.639084,454.202087 181.804520,454.123505 164.977417,454.394135 
	C155.584213,454.545197 146.846359,456.949158 140.467514,464.636414 
	C135.747086,470.324982 136.365051,476.923920 138.392593,483.101318 
	C140.281693,488.856873 145.822418,488.795166 151.002441,488.768341 
	C168.166550,488.679535 185.331436,488.737823 203.493652,488.739716 
M841.499817,488.725403 
	C853.489624,488.709991 865.480713,488.792725 877.468872,488.644287 
	C885.359314,488.546631 888.199402,485.560303 888.392456,477.662354 
	C888.473938,474.333649 888.418030,471.001648 888.435181,467.671204 
	C888.491516,456.738037 885.980286,454.253265 874.841736,454.248108 
	C863.351501,454.242798 851.860352,454.159241 840.371338,454.275726 
	C834.056702,454.339722 827.684937,454.278961 821.445312,455.091675 
	C807.427063,456.917480 799.886169,465.334412 800.369141,477.846069 
	C800.662537,485.445435 803.937134,488.663452 811.524597,488.695129 
	C821.182800,488.735443 830.841370,488.719452 841.499817,488.725403 
z"/>
<path fill="#D2D2E8" opacity="1.000000" stroke="none" 
	d="
M567.983215,496.253113 
	C571.232056,496.398010 573.978455,496.655304 573.981018,492.570374 
	C573.983459,488.643311 571.476562,488.695679 568.599060,488.715179 
	C556.606079,488.796539 544.612244,488.772095 532.618774,488.736053 
	C524.780212,488.712494 521.371582,485.317657 521.267517,477.491272 
	C521.212158,473.327515 521.168152,469.161041 521.252136,464.998505 
	C521.391418,458.096039 524.896301,454.354736 531.643066,454.321655 
	C550.965454,454.226898 570.289978,454.154755 589.610840,454.353760 
	C599.288330,454.453400 610.432007,466.401154 610.405579,476.050385 
	C610.380127,485.378540 609.935669,494.731964 610.469238,504.028717 
	C611.185791,516.514099 606.491150,525.303955 594.325989,530.286255 
	C598.745911,539.265808 603.088440,548.093811 607.435974,556.919250 
	C611.755005,565.686768 608.214844,571.549927 598.504089,571.654114 
	C593.340759,571.709473 588.176147,571.657654 583.012939,571.721252 
	C578.976501,571.770935 576.241211,570.263123 574.375305,566.394714 
	C568.710815,554.651184 562.728088,543.061218 556.015930,531.490723 
	C556.015930,537.815613 556.016663,544.140503 556.015686,550.465393 
	C556.015076,554.296692 556.075500,558.129272 555.994812,561.958923 
	C555.876587,567.565369 552.768921,571.197266 547.251465,571.518799 
	C541.606873,571.847717 535.918213,571.860535 530.270996,571.574524 
	C525.120422,571.313721 521.420166,567.740417 521.362976,562.563721 
	C521.153259,543.576416 521.127991,524.584473 521.312927,505.596954 
	C521.371155,499.622589 525.404541,496.364227 532.002075,496.307617 
	C543.828247,496.206116 555.655701,496.262909 567.983215,496.253113 
M594.439331,566.248352 
	C595.939087,566.250793 597.439148,566.274658 598.938538,566.251831 
	C604.305359,566.169983 605.379028,564.360413 602.962952,559.413879 
	C600.991028,555.376892 598.967834,551.365051 596.976074,547.337769 
	C593.461121,540.230530 589.952820,533.119995 586.356018,525.837341 
	C587.414490,525.526794 587.862671,525.299500 588.321899,525.274597 
	C599.414307,524.672485 605.102173,518.638489 605.100891,507.442871 
	C605.099609,496.778107 605.099609,486.113312 605.090210,475.448547 
	C605.085205,469.806366 596.333923,459.884064 590.726685,459.834747 
	C570.898438,459.660217 551.067688,459.776520 531.237915,459.752655 
	C528.085144,459.748840 526.701233,461.254517 526.747437,464.358856 
	C526.806885,468.357239 526.752136,472.357208 526.755981,476.356506 
	C526.762207,482.919891 527.057434,483.239075 533.434937,483.246063 
	C545.766052,483.259521 558.097290,483.233795 570.428345,483.258667 
	C576.228577,483.270355 578.975586,486.210205 579.035278,492.349182 
	C579.098938,498.890076 576.499451,501.746185 570.403870,501.753693 
	C557.739441,501.769348 545.073975,501.850739 532.411194,501.705078 
	C528.410889,501.659058 526.675781,502.996948 526.704590,507.186157 
	C526.828369,525.182129 526.792053,543.179565 526.710571,561.176025 
	C526.694275,564.776001 528.126770,566.371216 531.758484,566.271790 
	C536.254211,566.148682 540.759827,566.133301 545.254150,566.283142 
	C549.257385,566.416565 551.009583,564.797485 550.932556,560.688538 
	C550.776489,552.359619 550.885925,544.025635 550.885986,535.693787 
	C550.885986,532.284424 550.886047,528.875061 550.886047,525.871033 
	C557.308899,523.960144 560.538208,526.023315 562.833557,531.409424 
	C566.152527,539.197510 571.058960,546.361328 573.893982,554.289978 
	C577.394226,564.079102 583.137268,568.464294 594.439331,566.248352 
z"/>
<path fill="#D2D2E8" opacity="1.000000" stroke="none" 
	d="
M391.023163,458.977112 
	C399.400085,465.320038 407.449524,471.496918 415.540405,477.619080 
	C426.824158,486.157135 426.867157,498.916412 415.600952,507.640289 
	C413.250458,509.460449 410.884491,511.260529 408.036133,513.445374 
	C411.088745,515.726013 413.858582,517.696411 416.521118,519.802368 
	C426.497681,527.693420 426.682953,539.889893 416.667786,547.772644 
	C407.661530,554.861267 398.534271,561.835144 389.054382,568.260681 
	C385.966644,570.353577 381.641083,571.259277 377.809875,571.483887 
	C369.678223,571.960693 361.498169,571.727844 353.340332,571.613525 
	C341.406342,571.446289 334.496307,564.543823 334.397247,552.562317 
	C334.271942,537.410339 334.316895,522.256531 334.348236,507.103668 
	C334.362946,499.979156 337.860840,496.407501 345.067444,496.292603 
	C352.891937,496.167816 360.729980,496.487213 368.541382,496.142853 
	C371.773834,496.000336 374.952393,494.636230 378.155457,493.827698 
	C378.188690,492.987793 378.221893,492.147888 378.255127,491.308014 
	C375.020874,490.458466 371.813721,489.027649 368.546967,488.875366 
	C360.737274,488.511414 352.898987,488.805878 345.073303,488.727844 
	C338.311462,488.660400 334.976562,485.553650 334.442688,478.878448 
	C334.257263,476.560516 334.204956,474.209015 334.360016,471.890778 
	C335.067108,461.319092 341.699951,454.677124 352.323853,454.345459 
	C360.974060,454.075439 369.677094,453.841980 378.283203,454.522095 
	C382.512787,454.856323 386.575806,457.298431 391.023163,458.977112 
M385.630554,564.586792 
	C394.721191,557.832153 403.837799,551.112122 412.894562,544.312378 
	C420.841583,538.345947 420.804138,529.643738 412.841003,523.529602 
	C408.534271,520.222961 404.165344,516.997192 399.460785,513.461609 
	C404.320068,509.765320 408.701141,506.479523 413.031677,503.128418 
	C420.641785,497.239502 420.833740,488.386810 413.326508,482.522461 
	C404.663239,475.755096 395.920380,469.083832 387.051880,462.589569 
	C385.138672,461.188507 382.562927,460.015411 380.256042,459.946167 
	C370.432648,459.651245 360.591553,459.635925 350.765045,459.866638 
	C344.485809,460.014069 340.070343,464.843872 339.787781,471.212708 
	C339.684479,473.541565 339.853363,475.882996 339.736572,478.210571 
	C339.554688,481.836700 341.185638,483.342987 344.798676,483.276825 
	C351.296204,483.157837 357.881500,483.906036 364.277344,483.091827 
	C373.664856,481.896790 380.113434,486.262054 386.098663,492.531494 
	C380.248688,498.432098 374.221100,503.210724 364.871155,501.925171 
	C358.492035,501.048096 351.890747,501.896790 345.396576,501.706696 
	C341.378510,501.589111 339.665863,503.022339 339.703186,507.200012 
	C339.841644,522.698120 339.710388,538.198425 339.780518,553.697388 
	C339.816223,561.585632 344.292328,566.117798 352.141479,566.216187 
	C360.973083,566.326904 369.808350,566.326782 378.639069,566.187927 
	C380.737030,566.154968 382.823303,565.377380 385.630554,564.586792 
z"/>
<path fill="#CDCDE4" opacity="1.000000" stroke="none" 
	d="
M493.997009,496.270264 
	C498.992157,496.280731 503.494659,496.138214 507.982330,496.334656 
	C514.653687,496.626648 517.945984,500.148895 518.000793,506.759399 
	C518.036743,511.088470 518.023376,515.418152 518.003723,519.747437 
	C517.969360,527.305054 514.700745,530.662842 506.995514,530.711304 
	C493.341949,530.797180 479.687469,530.739502 466.033386,530.750244 
	C465.221008,530.750854 464.408722,530.825623 463.314758,530.879883 
	C463.314758,532.912720 463.314758,534.808472 463.314758,537.409607 
	C475.463165,537.409607 487.559326,537.408020 499.655518,537.411072 
	C501.986694,537.411621 504.318420,537.401855 506.648956,537.445801 
	C515.071777,537.604614 517.989258,540.577515 518.004822,548.994568 
	C518.012207,552.990906 518.028687,556.987427 517.999512,560.983521 
	C517.946960,568.185974 514.688477,571.526245 507.182739,571.600830 
	C493.696228,571.734924 480.207825,571.678833 466.720215,571.695374 
	C460.226166,571.703369 453.730408,571.790588 447.238434,571.674377 
	C435.592590,571.465942 428.505310,564.614563 428.355408,553.018555 
	C428.155243,537.535950 428.224823,522.048523 428.319702,506.564056 
	C428.361664,499.722046 432.181030,496.275543 439.546967,496.257294 
	C457.530457,496.212708 475.514130,496.259125 493.997009,496.270264 
M512.785400,521.129639 
	C512.786682,516.300049 512.754578,511.470184 512.800659,506.641022 
	C512.832214,503.330322 511.292206,501.767670 507.960663,501.771057 
	C484.811707,501.794678 461.662689,501.805939 438.513824,501.759949 
	C435.102631,501.753174 433.745758,503.288879 433.757996,506.622162 
	C433.817322,522.776245 433.689453,538.931641 433.848724,555.084412 
	C433.910797,561.379883 438.649445,566.095825 445.047668,566.143188 
	C466.030457,566.298523 487.015015,566.206787 507.998810,566.241577 
	C511.351562,566.247131 512.843262,564.641296 512.803040,561.343262 
	C512.750244,557.013916 512.664124,552.678833 512.823853,548.354736 
	C512.974121,544.286133 511.225281,542.701172 507.175232,542.734009 
	C492.687256,542.851257 478.197754,542.779724 463.708832,542.779602 
	C461.924866,542.779602 460.140900,542.779602 458.241150,542.779602 
	C458.241150,536.661255 458.241150,531.123962 458.241150,525.419861 
	C461.733154,525.267151 464.865997,525.130188 468.921234,525.176270 
	C481.732788,525.204651 494.546631,525.356567 507.353241,525.118713 
	C509.130920,525.085693 510.872833,523.129395 512.785400,521.129639 
z"/>
<path fill="#D1CEE2" opacity="1.000000" stroke="none" 
	d="
M766.000122,496.270782 
	C772.831604,496.284515 779.164062,496.230713 785.494263,496.328461 
	C793.887573,496.458038 796.983704,499.606262 796.997253,507.828644 
	C797.003296,511.494232 796.993408,515.159851 796.992493,518.825439 
	C796.990234,527.647278 793.890381,530.732910 784.878479,530.756226 
	C772.382202,530.788513 759.885864,530.769836 747.389526,530.772827 
	C745.760132,530.773193 744.130798,530.772888 742.264282,530.772888 
	C742.264282,533.030212 742.264282,534.930176 742.264282,537.315796 
	C756.257019,537.315796 770.043823,537.288696 783.830566,537.324585 
	C794.519714,537.352356 797.016296,539.920593 796.999390,550.682434 
	C796.994446,553.848145 796.987732,557.013916 796.973572,560.179626 
	C796.936890,568.364685 793.724365,571.648743 785.422363,571.667786 
	C767.594482,571.708618 749.766113,571.681335 731.938293,571.609253 
	C728.453613,571.595215 724.922913,571.548218 721.496155,570.999634 
	C714.174500,569.827393 708.481201,564.483704 707.989868,557.073486 
	C707.253052,545.959412 707.425842,534.783508 707.270447,523.633057 
	C707.196167,518.302368 707.218384,512.969360 707.265442,507.638092 
	C707.333801,499.884460 710.786987,496.312805 718.513855,496.278229 
	C734.175598,496.208130 749.838013,496.265747 766.000122,496.270782 
M763.500000,501.781342 
	C748.500793,501.781616 733.501221,501.830780 718.502502,501.746033 
	C714.990723,501.726196 712.721863,502.461945 712.747620,506.646851 
	C712.847351,522.811951 712.692871,538.979248 712.863586,555.143188 
	C712.928101,561.253906 717.536255,566.043274 723.640991,566.099670 
	C744.804443,566.295288 765.970581,566.193726 787.135742,566.213806 
	C790.225891,566.216736 791.739441,564.672974 791.747986,561.616760 
	C791.759644,557.450317 791.554810,553.271484 791.810608,549.120667 
	C792.106384,544.321167 790.108521,542.646057 785.368225,542.710938 
	C771.038330,542.906982 756.703979,542.790405 742.371399,542.770081 
	C740.627014,542.767578 738.882874,542.609253 737.246826,542.528503 
	C737.246826,536.472961 737.246826,531.065979 737.246826,525.219727 
	C739.414673,525.219727 741.216736,525.219604 743.018799,525.219727 
	C756.684753,525.220825 770.350708,525.224304 784.016663,525.222168 
	C791.549255,525.220947 791.756287,525.003662 791.758301,517.246094 
	C791.759094,514.246277 791.577087,511.232880 791.799988,508.249695 
	C792.149475,503.572144 790.369385,501.532043 785.496399,501.714935 
	C778.506592,501.977264 771.499634,501.781403 763.500000,501.781342 
z"/>
<path fill="#D2D2E8" opacity="1.000000" stroke="none" 
	d="
M650.525818,537.425537 
	C654.524353,537.217407 652.631592,535.595154 651.728210,534.344421 
	C645.996643,526.409180 640.261047,518.476501 634.471924,510.583160 
	C632.298340,507.619476 630.992249,504.694641 632.682922,500.923706 
	C634.212402,497.512299 636.438660,495.602203 640.269897,495.644806 
	C647.424683,495.724426 654.600464,495.437347 661.723877,495.931091 
	C663.973755,496.087067 666.777832,497.729797 668.149780,499.570435 
	C679.066956,514.216797 689.746765,529.041382 700.405396,543.878845 
	C708.461975,555.094299 702.368286,569.421082 688.620911,571.237976 
	C683.544861,571.908813 678.331177,571.615479 673.179993,571.626099 
	C657.537354,571.658203 641.894592,571.617004 626.251892,571.618225 
	C617.631592,571.618896 614.481873,568.591125 614.350525,560.023682 
	C614.284180,555.698303 614.118347,551.359131 614.370056,547.047913 
	C614.741455,540.687012 618.195007,537.416016 624.618530,537.335571 
	C633.103455,537.229248 641.591431,537.375061 650.525818,537.425537 
M640.500488,542.757446 
	C635.336670,542.758057 630.169006,542.879761 625.010193,542.719666 
	C621.115845,542.598877 619.568542,544.287415 619.724609,548.102356 
	C619.881104,551.927185 619.746460,555.763489 619.760254,559.594666 
	C619.782532,565.790649 620.183960,566.231323 626.197083,566.236450 
	C645.686401,566.253174 665.176453,566.155334 684.664673,566.299438 
	C690.086365,566.339539 694.636841,565.080627 697.320068,560.085022 
	C700.110596,554.889709 698.572998,550.175964 695.302979,545.683899 
	C685.210449,531.819824 675.260437,517.850891 665.043884,504.079407 
	C663.882751,502.514252 661.432312,501.186646 659.490784,501.054321 
	C653.687622,500.658844 647.834534,500.772217 642.013916,501.007050 
	C640.489746,501.068512 638.449097,501.933044 637.699341,503.103638 
	C637.140625,503.975891 637.907227,506.194733 638.723450,507.368988 
	C643.949219,514.887146 649.360718,522.275940 654.692871,529.720337 
	C657.553040,533.713501 660.376709,537.732727 663.937683,542.757324 
	C655.664856,542.757324 648.582520,542.757324 640.500488,542.757446 
z"/>
<path fill="#D8D8ED" opacity="1.000000" stroke="none" 
	d="
M274.912598,488.328979 
	C275.629059,487.884827 276.588196,487.607513 277.025421,486.971405 
	C283.335693,477.791046 289.726898,468.659698 295.754974,459.295349 
	C298.012634,455.788116 300.802856,454.287262 304.772919,454.318390 
	C310.268433,454.361450 315.800903,454.717896 321.251434,454.218414 
	C328.334076,453.569336 332.808685,462.586395 329.055847,468.241272 
	C318.966583,483.443909 309.573761,499.112000 300.074188,514.698792 
	C298.862885,516.686279 298.115326,519.281494 298.082245,521.608337 
	C297.895203,534.762634 298.017883,547.920898 297.980927,561.077759 
	C297.961182,568.113403 294.707397,571.432190 287.612030,571.614258 
	C282.951630,571.733948 278.283447,571.764099 273.623718,571.643127 
	C266.869873,571.467712 263.269379,567.831177 263.207703,560.967834 
	C263.104523,549.477295 262.931610,537.977722 263.276520,526.496643 
	C263.458527,520.437622 262.522675,515.005249 258.668121,510.240631 
	C256.131439,507.105042 255.526123,503.843750 257.604797,500.146881 
	C259.567139,496.656921 262.503906,495.102631 266.304077,495.743378 
	C271.456390,496.612213 273.340698,493.264496 275.021301,489.092468 
	C274.920105,488.622650 275.088470,488.354706 275.088470,488.354706 
	C275.088470,488.354706 274.912598,488.328979 274.912598,488.328979 
M286.673126,482.189819 
	C283.700836,486.607147 280.510010,490.896240 277.820892,495.479706 
	C275.385986,499.629852 272.406342,501.750427 267.380157,501.042755 
	C265.762238,500.814972 263.119171,501.637573 262.425323,502.836395 
	C261.736969,504.025726 262.367523,506.710449 263.365356,508.017273 
	C267.746674,513.755310 268.937012,520.048279 268.655853,527.164307 
	C268.215759,538.303650 268.626190,549.474182 268.490509,560.629211 
	C268.441895,564.625183 269.866516,566.504272 274.027924,566.318176 
	C278.182343,566.132385 282.364258,566.086426 286.511627,566.342468 
	C291.219299,566.633057 293.074982,564.856628 292.990509,560.012268 
	C292.764099,547.027832 292.774536,534.034302 293.017212,521.050537 
	C293.069702,518.244080 293.926544,515.122192 295.373871,512.726013 
	C304.660583,497.350891 314.259033,482.164276 323.611176,466.828003 
	C324.511444,465.351685 325.261475,462.782593 324.570465,461.614655 
	C323.858978,460.412170 321.318085,459.884338 319.541870,459.798065 
	C314.724304,459.564087 309.868286,459.472412 305.068817,459.849823 
	C303.266205,459.991608 300.985748,461.150940 299.939453,462.586884 
	C295.436035,468.767426 291.310242,475.223083 286.673126,482.189819 
z"/>
<path fill="#D3D0E5" opacity="1.000000" stroke="none" 
	d="
M847.999878,571.661499 
	C837.550598,571.138184 827.594788,570.707825 817.657227,570.015930 
	C815.576660,569.871033 813.525574,568.858948 811.525452,568.080444 
	C803.554749,564.977844 799.722290,559.721558 800.144714,550.564392 
	C800.819336,535.939758 800.272522,521.261108 800.352234,506.605927 
	C800.397644,498.265747 803.565918,495.246124 811.943237,495.212921 
	C816.440063,495.195099 820.938660,495.130280 825.433411,495.227234 
	C831.837524,495.365417 835.249329,498.724762 835.314392,505.150940 
	C835.417114,515.301453 835.341736,525.453674 835.341736,536.249023 
	C838.939148,536.249023 842.370850,536.249451 845.802551,536.248901 
	C856.295288,536.247253 866.788269,536.194336 877.280579,536.259949 
	C885.142273,536.309082 888.410095,539.673035 888.479187,547.590271 
	C888.498108,549.754089 888.522217,551.926758 888.361023,554.081726 
	C887.535156,565.123352 881.126160,571.333374 869.984192,571.632324 
	C862.827637,571.824341 855.661621,571.663940 847.999878,571.661499 
M881.824097,559.899048 
	C882.257080,555.809509 882.693604,551.720276 883.122009,547.630249 
	C883.569763,543.355164 881.711914,541.659180 877.363220,541.709229 
	C863.547241,541.868286 849.728210,541.775879 835.910400,541.756409 
	C834.136108,541.753906 832.362000,541.608521 830.451355,541.523193 
	C830.312866,540.093567 830.139343,539.125244 830.137512,538.156616 
	C830.117249,527.501892 830.015625,516.845581 830.177734,506.193329 
	C830.239929,502.105957 828.668579,500.403778 824.590820,500.574188 
	C820.436096,500.747864 816.255066,500.820557 812.109985,500.555847 
	C807.367920,500.252991 805.606384,502.062286 805.685242,506.898193 
	C805.916016,521.045166 805.767029,535.198425 805.766968,549.349182 
	C805.766907,559.683777 807.860107,562.456665 818.163635,564.943848 
	C821.365540,565.716797 824.729614,566.121338 828.024658,566.152893 
	C842.174072,566.288696 856.325806,566.171814 870.476013,566.258850 
	C875.204102,566.287964 878.874329,564.602600 881.824097,559.899048 
z"/>
<path fill="#CFCFE6" opacity="1.000000" stroke="none" 
	d="
M175.007584,571.656799 
	C163.674652,571.669128 152.915619,571.657410 143.321121,565.230286 
	C139.159241,562.442322 137.215042,559.043335 137.243942,554.082947 
	C137.337051,538.109009 137.212463,522.133911 137.272781,506.159668 
	C137.300705,498.766449 140.915649,495.291351 148.371414,495.204712 
	C152.364609,495.158295 156.358582,495.173737 160.352203,495.172028 
	C169.486359,495.168121 172.488663,498.223083 172.493683,507.531708 
	C172.498718,516.846191 172.494781,526.160645 172.494781,536.255127 
	C174.255157,536.255127 175.830811,536.254578 177.406448,536.255249 
	C189.720139,536.260620 202.034058,536.224976 214.347458,536.286926 
	C222.039383,536.325684 225.396011,539.601013 225.394440,547.164795 
	C225.393631,551.145630 225.552170,555.250061 224.681213,559.080933 
	C222.969955,566.607971 215.821854,571.505737 206.955338,571.623779 
	C196.473892,571.763306 185.989166,571.656555 175.007584,571.656799 
M167.123535,534.381226 
	C167.123413,524.890442 167.023956,515.398193 167.171234,505.909698 
	C167.231552,502.024414 165.636368,500.464783 161.826965,500.576294 
	C157.168823,500.712708 152.501755,500.691010 147.842178,500.582184 
	C144.269440,500.498749 142.719604,502.005737 142.736755,505.639923 
	C142.814575,522.123474 142.668594,538.609070 142.907761,555.089478 
	C142.935471,556.999695 144.410233,559.459106 145.980240,560.673401 
	C151.442215,564.897827 157.956253,566.197693 164.763733,566.203247 
	C178.416931,566.214355 192.070114,566.240234 205.723312,566.237915 
	C216.132629,566.236145 220.097534,562.219360 220.123123,551.705750 
	C220.127182,550.040710 220.045380,548.371338 220.138519,546.711548 
	C220.345551,543.022766 218.539078,541.694641 214.998047,541.736633 
	C206.174576,541.841370 197.349014,541.770264 188.524292,541.769958 
	C181.578262,541.769775 174.632217,541.769958 167.123581,541.769958 
	C167.123581,539.235962 167.123581,537.289551 167.123535,534.381226 
z"/>
<path fill="#CDCDE4" opacity="1.000000" stroke="none" 
	d="
M518.007568,471.984711 
	C518.007263,474.134125 518.012146,475.797668 518.005798,477.461182 
	C517.975891,485.334778 514.747803,488.670349 506.766571,488.702484 
	C488.135254,488.777466 469.503510,488.745270 450.871918,488.755341 
	C446.713074,488.757599 442.551636,488.848633 438.396027,488.732513 
	C432.485535,488.567383 428.899597,485.592010 428.572784,479.745667 
	C428.316437,475.159729 428.439941,470.359314 429.532990,465.935425 
	C431.272980,458.893646 438.400543,454.320648 446.839020,454.278198 
	C466.967224,454.176880 487.096710,454.198273 507.224945,454.302338 
	C514.621765,454.340546 517.974854,458.004974 518.005676,465.510040 
	C518.013916,467.506287 518.007385,469.502563 518.007568,471.984711 
M435.177216,482.480804 
	C435.791321,482.712891 436.404907,483.146484 437.019562,483.147980 
	C460.811920,483.205475 484.604370,483.228577 508.396790,483.240692 
	C511.541412,483.242279 512.818115,481.472534 512.797974,478.476318 
	C512.766724,473.817810 512.774780,469.158936 512.790039,464.500244 
	C512.799866,461.488190 511.440948,459.789581 508.321564,459.791473 
	C487.025146,459.804382 465.728088,459.744202 444.432800,459.910187 
	C439.426086,459.949219 434.645691,463.875824 434.168732,468.532623 
	C433.720886,472.905853 434.359222,477.390320 435.177216,482.480804 
z"/>
<path fill="#D1CEE2" opacity="1.000000" stroke="none" 
	d="
M723.595886,454.398376 
	C744.681396,454.307129 765.331177,454.241699 785.980469,454.309753 
	C793.539856,454.334686 796.937561,457.884369 796.962280,465.333191 
	C796.977173,469.829437 797.020325,474.327637 796.915222,478.821747 
	C796.781250,484.547791 793.399963,488.508484 787.726624,488.555481 
	C764.080627,488.751373 740.431824,488.753601 716.785095,488.633118 
	C711.408020,488.605743 707.911438,485.328857 707.579224,480.019470 
	C707.301270,475.578339 707.224854,470.894806 708.327881,466.648163 
	C710.227112,459.335632 715.761658,455.552673 723.595886,454.398376 
M786.278503,483.229797 
	C790.010132,483.476135 791.878296,481.869659 791.783325,477.990265 
	C791.677307,473.660828 791.696289,469.325775 791.775391,464.995209 
	C791.839172,461.500153 790.379944,459.758575 786.748596,459.766846 
	C765.921936,459.814362 745.094421,459.707306 724.268677,459.857422 
	C717.375732,459.907104 713.012634,464.699371 712.795532,471.706299 
	C712.744019,473.370911 712.774292,475.038452 712.783264,476.704529 
	C712.816162,482.825287 713.183472,483.216736 719.339661,483.220947 
	C741.332825,483.235992 763.326050,483.229706 786.278503,483.229797 
z"/>
<path fill="#D1CEE2" opacity="1.000000" stroke="none" 
	d="
M699.785522,456.008240 
	C701.399353,459.306885 703.330261,462.289032 703.819641,465.491425 
	C704.466675,469.725586 704.029236,474.132812 703.977417,478.464722 
	C703.905151,484.508240 700.691895,488.062256 694.619446,488.574707 
	C691.473389,488.840179 688.292114,488.720581 685.126770,488.721039 
	C667.129944,488.723755 649.133118,488.709259 631.136292,488.702484 
	C621.795044,488.698975 615.807190,482.979858 614.553528,472.858948 
	C613.551331,464.767944 619.422668,456.796509 627.857361,454.975800 
	C629.952942,454.523468 632.136169,454.283722 634.279846,454.278809 
	C653.443054,454.235016 672.606750,454.209412 691.769226,454.341553 
	C694.336304,454.359222 696.897217,455.284698 699.785522,456.008240 
M667.500000,483.219971 
	C676.165100,483.220062 684.830750,483.158997 693.494934,483.248474 
	C697.295532,483.287720 698.977478,481.679993 698.825806,477.836761 
	C698.674805,474.010681 698.810974,470.173340 698.817566,466.340942 
	C698.827637,460.457092 698.186951,459.793518 692.165527,459.787872 
	C673.835632,459.770691 655.505676,459.778839 637.175781,459.784790 
	C634.843567,459.785522 632.497253,459.676727 630.181763,459.886566 
	C623.850037,460.460510 619.490295,465.761688 619.824219,472.298370 
	C620.168762,479.042572 624.441711,483.222565 631.006592,483.223785 
	C642.837708,483.226013 654.668884,483.221863 667.500000,483.219971 
z"/>
<path fill="#CDCDE4" opacity="1.000000" stroke="none" 
	d="
M202.994843,488.739716 
	C185.331436,488.737823 168.166550,488.679535 151.002441,488.768341 
	C145.822418,488.795166 140.281693,488.856873 138.392593,483.101318 
	C136.365051,476.923920 135.747086,470.324982 140.467514,464.636414 
	C146.846359,456.949158 155.584213,454.545197 164.977417,454.394135 
	C181.804520,454.123505 198.639084,454.202087 215.469452,454.307617 
	C221.776413,454.347137 225.372864,458.060547 225.504776,464.258392 
	C225.607559,469.087830 225.618881,473.927643 225.425140,478.752991 
	C225.154572,485.491486 221.836929,488.600464 214.991974,488.736694 
	C211.160706,488.812988 207.326523,488.743500 202.994843,488.739716 
M142.775192,475.554199 
	C143.045959,478.794952 141.460144,483.190155 147.175919,483.199707 
	C169.999466,483.237823 192.823135,483.207062 215.646713,483.227753 
	C218.790894,483.230621 220.179520,481.743439 220.131943,478.627258 
	C220.063293,474.130249 219.985275,469.626495 220.154160,465.134766 
	C220.297836,461.313812 218.776810,459.712677 214.886246,459.739136 
	C197.727844,459.855865 180.551010,459.392151 163.419388,460.087738 
	C157.935425,460.310425 152.360855,463.009399 147.224701,465.420837 
	C143.848267,467.006042 141.982819,470.477844 142.775192,475.554199 
z"/>
<path fill="#D1CEE2" opacity="1.000000" stroke="none" 
	d="
M840.999756,488.726562 
	C830.841370,488.719452 821.182800,488.735443 811.524597,488.695129 
	C803.937134,488.663452 800.662537,485.445435 800.369141,477.846069 
	C799.886169,465.334412 807.427063,456.917480 821.445312,455.091675 
	C827.684937,454.278961 834.056702,454.339722 840.371338,454.275726 
	C851.860352,454.159241 863.351501,454.242798 874.841736,454.248108 
	C885.980286,454.253265 888.491516,456.738037 888.435181,467.671204 
	C888.418030,471.001648 888.473938,474.333649 888.392456,477.662354 
	C888.199402,485.560303 885.359314,488.546631 877.468872,488.644287 
	C865.480713,488.792725 853.489624,488.709991 840.999756,488.726562 
M829.500000,483.219818 
	C845.471802,483.219452 861.444153,483.152802 877.415161,483.265900 
	C881.356201,483.293823 883.336792,482.021881 883.153320,477.805664 
	C882.958130,473.321991 883.465088,468.778961 882.917480,464.354401 
	C882.712952,462.701752 880.411682,460.010590 879.042725,459.995880 
	C860.248413,459.793671 841.429932,459.485474 822.659607,460.245270 
	C810.924744,460.720245 805.297729,467.747894 805.734863,478.407684 
	C805.871643,481.741119 807.137939,483.287384 810.532227,483.239014 
	C816.520386,483.153687 822.510681,483.218475 829.500000,483.219818 
z"/>
<path fill="#D2D2E8" opacity="1.000000" stroke="none" 
	d="
M275.016602,487.820770 
	C274.912598,488.328979 275.088470,488.354706 275.088470,488.354706 
	C275.088470,488.354706 274.920105,488.622650 274.963531,488.586731 
	C265.727509,492.582336 256.096558,490.691071 246.593704,489.979065 
	C245.056396,489.863861 243.257462,487.893188 242.299271,486.336945 
	C238.478241,480.131165 234.845108,473.803375 231.328232,467.418365 
	C228.063843,461.491760 231.655991,454.748169 238.402786,454.412231 
	C244.709564,454.098206 251.087357,453.930420 257.346191,454.564178 
	C259.846558,454.817352 262.826233,456.880554 264.345032,459.007324 
	C268.281952,464.520172 271.403870,470.606781 275.094513,476.306763 
	C277.549683,480.098602 277.872772,483.635742 275.016602,487.820770 
M246.488785,483.446808 
	C247.058731,484.003387 247.618683,485.032318 248.200134,485.044617 
	C255.172455,485.191986 262.156342,485.354828 269.111572,485.004791 
	C269.938049,484.963196 271.709686,481.301727 271.181885,480.343506 
	C267.427032,473.526642 264.412384,465.431244 258.673370,460.883514 
	C254.831406,457.839081 246.901566,459.952850 240.800873,459.760620 
	C240.468887,459.750183 240.135468,459.744537 239.804092,459.762360 
	C235.513809,459.993378 234.324615,462.105347 236.452835,465.893829 
	C239.621902,471.535126 242.866989,477.133759 246.488785,483.446808 
z"/>
<path fill="#1E1E8B" opacity="1.000000" stroke="none" 
	d="
M593.949585,566.247986 
	C583.137268,568.464294 577.394226,564.079102 573.893982,554.289978 
	C571.058960,546.361328 566.152527,539.197510 562.833557,531.409424 
	C560.538208,526.023315 557.308899,523.960144 550.886047,525.871033 
	C550.886047,528.875061 550.885986,532.284424 550.885986,535.693787 
	C550.885925,544.025635 550.776489,552.359619 550.932556,560.688538 
	C551.009583,564.797485 549.257385,566.416565 545.254150,566.283142 
	C540.759827,566.133301 536.254211,566.148682 531.758484,566.271790 
	C528.126770,566.371216 526.694275,564.776001 526.710571,561.176025 
	C526.792053,543.179565 526.828369,525.182129 526.704590,507.186157 
	C526.675781,502.996948 528.410889,501.659058 532.411194,501.705078 
	C545.073975,501.850739 557.739441,501.769348 570.403870,501.753693 
	C576.499451,501.746185 579.098938,498.890076 579.035278,492.349182 
	C578.975586,486.210205 576.228577,483.270355 570.428345,483.258667 
	C558.097290,483.233795 545.766052,483.259521 533.434937,483.246063 
	C527.057434,483.239075 526.762207,482.919891 526.755981,476.356506 
	C526.752136,472.357208 526.806885,468.357239 526.747437,464.358856 
	C526.701233,461.254517 528.085144,459.748840 531.237915,459.752655 
	C551.067688,459.776520 570.898438,459.660217 590.726685,459.834747 
	C596.333923,459.884064 605.085205,469.806366 605.090210,475.448547 
	C605.099609,486.113312 605.099609,496.778107 605.100891,507.442871 
	C605.102173,518.638489 599.414307,524.672485 588.321899,525.274597 
	C587.862671,525.299500 587.414490,525.526794 586.356018,525.837341 
	C589.952820,533.119995 593.461121,540.230530 596.976074,547.337769 
	C598.967834,551.365051 600.991028,555.376892 602.962952,559.413879 
	C605.379028,564.360413 604.305359,566.169983 598.938538,566.251831 
	C597.439148,566.274658 595.939087,566.250793 593.949585,566.247986 
z"/>
<path fill="#1E1E8B" opacity="1.000000" stroke="none" 
	d="
M385.272736,564.764526 
	C382.823303,565.377380 380.737030,566.154968 378.639069,566.187927 
	C369.808350,566.326782 360.973083,566.326904 352.141479,566.216187 
	C344.292328,566.117798 339.816223,561.585632 339.780518,553.697388 
	C339.710388,538.198425 339.841644,522.698120 339.703186,507.200012 
	C339.665863,503.022339 341.378510,501.589111 345.396576,501.706696 
	C351.890747,501.896790 358.492035,501.048096 364.871155,501.925171 
	C374.221100,503.210724 380.248688,498.432098 386.098663,492.531494 
	C380.113434,486.262054 373.664856,481.896790 364.277344,483.091827 
	C357.881500,483.906036 351.296204,483.157837 344.798676,483.276825 
	C341.185638,483.342987 339.554688,481.836700 339.736572,478.210571 
	C339.853363,475.882996 339.684479,473.541565 339.787781,471.212708 
	C340.070343,464.843872 344.485809,460.014069 350.765045,459.866638 
	C360.591553,459.635925 370.432648,459.651245 380.256042,459.946167 
	C382.562927,460.015411 385.138672,461.188507 387.051880,462.589569 
	C395.920380,469.083832 404.663239,475.755096 413.326508,482.522461 
	C420.833740,488.386810 420.641785,497.239502 413.031677,503.128418 
	C408.701141,506.479523 404.320068,509.765320 399.460785,513.461609 
	C404.165344,516.997192 408.534271,520.222961 412.841003,523.529602 
	C420.804138,529.643738 420.841583,538.345947 412.894562,544.312378 
	C403.837799,551.112122 394.721191,557.832153 385.272736,564.764526 
M374.637756,525.204407 
	C371.194305,525.204407 367.750854,525.204407 364.146545,525.204407 
	C364.146545,531.289246 364.146545,536.850708 364.146545,542.199158 
	C373.901337,545.309387 380.156189,540.304871 386.337555,533.647766 
	C382.542572,530.820068 378.970764,528.158752 374.637756,525.204407 
z"/>
<path fill="#1E1E8B" opacity="1.000000" stroke="none" 
	d="
M467.998840,524.993164 
	C464.865997,525.130188 461.733154,525.267151 458.241150,525.419861 
	C458.241150,531.123962 458.241150,536.661255 458.241150,542.779602 
	C460.140900,542.779602 461.924866,542.779602 463.708832,542.779602 
	C478.197754,542.779724 492.687256,542.851257 507.175232,542.734009 
	C511.225281,542.701172 512.974121,544.286133 512.823853,548.354736 
	C512.664124,552.678833 512.750244,557.013916 512.803040,561.343262 
	C512.843262,564.641296 511.351562,566.247131 507.998810,566.241577 
	C487.015015,566.206787 466.030457,566.298523 445.047668,566.143188 
	C438.649445,566.095825 433.910797,561.379883 433.848724,555.084412 
	C433.689453,538.931641 433.817322,522.776245 433.757996,506.622162 
	C433.745758,503.288879 435.102631,501.753174 438.513824,501.759949 
	C461.662689,501.805939 484.811707,501.794678 507.960663,501.771057 
	C511.292206,501.767670 512.832214,503.330322 512.800659,506.641022 
	C512.754578,511.470184 512.786682,516.300049 512.240967,521.608582 
	C509.241669,522.388794 506.789124,522.926758 504.331635,522.950195 
	C493.871216,523.049805 483.407837,522.910217 472.949524,523.089111 
	C471.288940,523.117493 469.648560,524.328796 467.998840,524.993164 
z"/>
<path fill="#1C1C7F" opacity="1.000000" stroke="none" 
	d="
M468.460022,525.084717 
	C469.648560,524.328796 471.288940,523.117493 472.949524,523.089111 
	C483.407837,522.910217 493.871216,523.049805 504.331635,522.950195 
	C506.789124,522.926758 509.241669,522.388794 512.163879,522.075439 
	C510.872833,523.129395 509.130920,525.085693 507.353241,525.118713 
	C494.546631,525.356567 481.732788,525.204651 468.460022,525.084717 
z"/>
<path fill="#742E72" opacity="1.000000" stroke="none" 
	d="
M764.000000,501.781250 
	C771.499634,501.781403 778.506592,501.977264 785.496399,501.714935 
	C790.369385,501.532043 792.149475,503.572144 791.799988,508.249695 
	C791.577087,511.232880 791.759094,514.246277 791.758301,517.246094 
	C791.756287,525.003662 791.549255,525.220947 784.016663,525.222168 
	C770.350708,525.224304 756.684753,525.220825 743.018799,525.219727 
	C741.216736,525.219604 739.414673,525.219727 737.246826,525.219727 
	C737.246826,531.065979 737.246826,536.472961 737.246826,542.528503 
	C738.882874,542.609253 740.627014,542.767578 742.371399,542.770081 
	C756.703979,542.790405 771.038330,542.906982 785.368225,542.710938 
	C790.108521,542.646057 792.106384,544.321167 791.810608,549.120667 
	C791.554810,553.271484 791.759644,557.450317 791.747986,561.616760 
	C791.739441,564.672974 790.225891,566.216736 787.135742,566.213806 
	C765.970581,566.193726 744.804443,566.295288 723.640991,566.099670 
	C717.536255,566.043274 712.928101,561.253906 712.863586,555.143188 
	C712.692871,538.979248 712.847351,522.811951 712.747620,506.646851 
	C712.721863,502.461945 714.990723,501.726196 718.502502,501.746033 
	C733.501221,501.830780 748.500793,501.781616 764.000000,501.781250 
z"/>
<path fill="#742F73" opacity="1.000000" stroke="none" 
	d="
M641.000305,542.757385 
	C648.582520,542.757324 655.664856,542.757324 663.937683,542.757324 
	C660.376709,537.732727 657.553040,533.713501 654.692871,529.720337 
	C649.360718,522.275940 643.949219,514.887146 638.723450,507.368988 
	C637.907227,506.194733 637.140625,503.975891 637.699341,503.103638 
	C638.449097,501.933044 640.489746,501.068512 642.013916,501.007050 
	C647.834534,500.772217 653.687622,500.658844 659.490784,501.054321 
	C661.432312,501.186646 663.882751,502.514252 665.043884,504.079407 
	C675.260437,517.850891 685.210449,531.819824 695.302979,545.683899 
	C698.572998,550.175964 700.110596,554.889709 697.320068,560.085022 
	C694.636841,565.080627 690.086365,566.339539 684.664673,566.299438 
	C665.176453,566.155334 645.686401,566.253174 626.197083,566.236450 
	C620.183960,566.231323 619.782532,565.790649 619.760254,559.594666 
	C619.746460,555.763489 619.881104,551.927185 619.724609,548.102356 
	C619.568542,544.287415 621.115845,542.598877 625.010193,542.719666 
	C630.169006,542.879761 635.336670,542.758057 641.000305,542.757385 
z"/>
<path fill="#20208C" opacity="1.000000" stroke="none" 
	d="
M286.860046,481.884186 
	C291.310242,475.223083 295.436035,468.767426 299.939453,462.586884 
	C300.985748,461.150940 303.266205,459.991608 305.068817,459.849823 
	C309.868286,459.472412 314.724304,459.564087 319.541870,459.798065 
	C321.318085,459.884338 323.858978,460.412170 324.570465,461.614655 
	C325.261475,462.782593 324.511444,465.351685 323.611176,466.828003 
	C314.259033,482.164276 304.660583,497.350891 295.373871,512.726013 
	C293.926544,515.122192 293.069702,518.244080 293.017212,521.050537 
	C292.774536,534.034302 292.764099,547.027832 292.990509,560.012268 
	C293.074982,564.856628 291.219299,566.633057 286.511627,566.342468 
	C282.364258,566.086426 278.182343,566.132385 274.027924,566.318176 
	C269.866516,566.504272 268.441895,564.625183 268.490509,560.629211 
	C268.626190,549.474182 268.215759,538.303650 268.655853,527.164307 
	C268.937012,520.048279 267.746674,513.755310 263.365356,508.017273 
	C262.367523,506.710449 261.736969,504.025726 262.425323,502.836395 
	C263.119171,501.637573 265.762238,500.814972 267.380157,501.042755 
	C272.406342,501.750427 275.385986,499.629852 277.820892,495.479706 
	C280.510010,490.896240 283.700836,486.607147 286.860046,481.884186 
z"/>
<path fill="#742F73" opacity="1.000000" stroke="none" 
	d="
M881.623047,560.242554 
	C878.874329,564.602600 875.204102,566.287964 870.476013,566.258850 
	C856.325806,566.171814 842.174072,566.288696 828.024658,566.152893 
	C824.729614,566.121338 821.365540,565.716797 818.163635,564.943848 
	C807.860107,562.456665 805.766907,559.683777 805.766968,549.349182 
	C805.767029,535.198425 805.916016,521.045166 805.685242,506.898193 
	C805.606384,502.062286 807.367920,500.252991 812.109985,500.555847 
	C816.255066,500.820557 820.436096,500.747864 824.590820,500.574188 
	C828.668579,500.403778 830.239929,502.105957 830.177734,506.193329 
	C830.015625,516.845581 830.117249,527.501892 830.137512,538.156616 
	C830.139343,539.125244 830.312866,540.093567 830.451355,541.523193 
	C832.362000,541.608521 834.136108,541.753906 835.910400,541.756409 
	C849.728210,541.775879 863.547241,541.868286 877.363220,541.709229 
	C881.711914,541.659180 883.569763,543.355164 883.122009,547.630249 
	C882.693604,551.720276 882.257080,555.809509 881.623047,560.242554 
z"/>
<path fill="#1E1E8B" opacity="1.000000" stroke="none" 
	d="
M167.123566,534.862183 
	C167.123581,537.289551 167.123581,539.235962 167.123581,541.769958 
	C174.632217,541.769958 181.578262,541.769775 188.524292,541.769958 
	C197.349014,541.770264 206.174576,541.841370 214.998047,541.736633 
	C218.539078,541.694641 220.345551,543.022766 220.138519,546.711548 
	C220.045380,548.371338 220.127182,550.040710 220.123123,551.705750 
	C220.097534,562.219360 216.132629,566.236145 205.723312,566.237915 
	C192.070114,566.240234 178.416931,566.214355 164.763733,566.203247 
	C157.956253,566.197693 151.442215,564.897827 145.980240,560.673401 
	C144.410233,559.459106 142.935471,556.999695 142.907761,555.089478 
	C142.668594,538.609070 142.814575,522.123474 142.736755,505.639923 
	C142.719604,502.005737 144.269440,500.498749 147.842178,500.582184 
	C152.501755,500.691010 157.168823,500.712708 161.826965,500.576294 
	C165.636368,500.464783 167.231552,502.024414 167.171234,505.909698 
	C167.023956,515.398193 167.123413,524.890442 167.123566,534.862183 
z"/>
<path fill="#1E1E8B" opacity="1.000000" stroke="none" 
	d="
M434.848419,482.153320 
	C434.359222,477.390320 433.720886,472.905853 434.168732,468.532623 
	C434.645691,463.875824 439.426086,459.949219 444.432800,459.910187 
	C465.728088,459.744202 487.025146,459.804382 508.321564,459.791473 
	C511.440948,459.789581 512.799866,461.488190 512.790039,464.500244 
	C512.774780,469.158936 512.766724,473.817810 512.797974,478.476318 
	C512.818115,481.472534 511.541412,483.242279 508.396790,483.240692 
	C484.604370,483.228577 460.811920,483.205475 437.019562,483.147980 
	C436.404907,483.146484 435.791321,482.712891 434.848419,482.153320 
z"/>
<path fill="#742E72" opacity="1.000000" stroke="none" 
	d="
M785.798828,483.230652 
	C763.326050,483.229706 741.332825,483.235992 719.339661,483.220947 
	C713.183472,483.216736 712.816162,482.825287 712.783264,476.704529 
	C712.774292,475.038452 712.744019,473.370911 712.795532,471.706299 
	C713.012634,464.699371 717.375732,459.907104 724.268677,459.857422 
	C745.094421,459.707306 765.921936,459.814362 786.748596,459.766846 
	C790.379944,459.758575 791.839172,461.500153 791.775391,464.995209 
	C791.696289,469.325775 791.677307,473.660828 791.783325,477.990265 
	C791.878296,481.869659 790.010132,483.476135 785.798828,483.230652 
z"/>
<path fill="#742E72" opacity="1.000000" stroke="none" 
	d="
M667.000000,483.220215 
	C654.668884,483.221863 642.837708,483.226013 631.006592,483.223785 
	C624.441711,483.222565 620.168762,479.042572 619.824219,472.298370 
	C619.490295,465.761688 623.850037,460.460510 630.181763,459.886566 
	C632.497253,459.676727 634.843567,459.785522 637.175781,459.784790 
	C655.505676,459.778839 673.835632,459.770691 692.165527,459.787872 
	C698.186951,459.793518 698.827637,460.457092 698.817566,466.340942 
	C698.810974,470.173340 698.674805,474.010681 698.825806,477.836761 
	C698.977478,481.679993 697.295532,483.287720 693.494934,483.248474 
	C684.830750,483.158997 676.165100,483.220062 667.000000,483.220215 
z"/>
<path fill="#1E1E8B" opacity="1.000000" stroke="none" 
	d="
M142.775146,475.105957 
	C141.982819,470.477844 143.848267,467.006042 147.224701,465.420837 
	C152.360855,463.009399 157.935425,460.310425 163.419388,460.087738 
	C180.551010,459.392151 197.727844,459.855865 214.886246,459.739136 
	C218.776810,459.712677 220.297836,461.313812 220.154160,465.134766 
	C219.985275,469.626495 220.063293,474.130249 220.131943,478.627258 
	C220.179520,481.743439 218.790894,483.230621 215.646713,483.227753 
	C192.823135,483.207062 169.999466,483.237823 147.175919,483.199707 
	C141.460144,483.190155 143.045959,478.794952 142.775146,475.105957 
z"/>
<path fill="#742E72" opacity="1.000000" stroke="none" 
	d="
M829.000061,483.220123 
	C822.510681,483.218475 816.520386,483.153687 810.532227,483.239014 
	C807.137939,483.287384 805.871643,481.741119 805.734863,478.407684 
	C805.297729,467.747894 810.924744,460.720245 822.659607,460.245270 
	C841.429932,459.485474 860.248413,459.793671 879.042725,459.995880 
	C880.411682,460.010590 882.712952,462.701752 882.917480,464.354401 
	C883.465088,468.778961 882.958130,473.321991 883.153320,477.805664 
	C883.336792,482.021881 881.356201,483.293823 877.415161,483.265900 
	C861.444153,483.152802 845.471802,483.219452 829.000061,483.220123 
z"/>
<path fill="#1C1C7F" opacity="1.000000" stroke="none" 
	d="
M246.284271,483.098663 
	C242.866989,477.133759 239.621902,471.535126 236.452835,465.893829 
	C234.324615,462.105347 235.513809,459.993378 239.804092,459.762360 
	C240.135468,459.744537 240.468887,459.750183 240.800873,459.760620 
	C246.901566,459.952850 254.831406,457.839081 258.673370,460.883514 
	C264.412384,465.431244 267.427032,473.526642 271.181885,480.343506 
	C271.709686,481.301727 269.938049,484.963196 269.111572,485.004791 
	C262.156342,485.354828 255.172455,485.191986 248.200134,485.044617 
	C247.618683,485.032318 247.058731,484.003387 246.284271,483.098663 
z"/>
<path fill="#EB2D3E" opacity="1.000000" stroke="none" 
	d="
M375.018372,525.350891 
	C378.970764,528.158752 382.542572,530.820068 386.337555,533.647766 
	C380.156189,540.304871 373.901337,545.309387 364.146545,542.199158 
	C364.146545,536.850708 364.146545,531.289246 364.146545,525.204407 
	C367.750854,525.204407 371.194305,525.204407 375.018372,525.350891 
M373.712982,536.796753 
	C374.829376,535.931396 375.945801,535.066101 378.037994,533.444397 
	C374.645111,532.252869 372.172028,531.384338 369.266418,530.363953 
	C369.266418,533.264038 369.266418,535.002930 369.266418,536.985168 
	C370.649200,536.985168 371.777771,536.985168 373.712982,536.796753 
z"/>
<path fill="#000000" opacity="1.000000" stroke="none" 
	d="
M373.309631,536.890991 
	C371.777771,536.985168 370.649200,536.985168 369.266418,536.985168 
	C369.266418,535.002930 369.266418,533.264038 369.266418,530.363953 
	C372.172028,531.384338 374.645111,532.252869 378.037994,533.444397 
	C375.945801,535.066101 374.829376,535.931396 373.309631,536.890991 
z"/>
</svg>